
        <svg xmlns="http://www.w3.org/2000/svg" xmlns:xlink="http://www.w3.org/1999/xlink" version="1.1" width="3205.4794520547944" height="945.2054794520546" viewBox="0 0 3205.4794520547944 945.2054794520546">
			
			<g transform="scale(10.273972602739725) translate(10, 10)">
				<defs id="SvgjsDefs1001"/><g id="SvgjsG1007" featureKey="symbolFeature-0" transform="matrix(0.800000011920929,0,0,0.800000011920929,-4,-4)" fill="#fff"><g xmlns="http://www.w3.org/2000/svg"><path d="M50,7c23.7,0,43,19.3,43,43S73.7,93,50,93S7,73.7,7,50S26.3,7,50,7 M50,5C25.2,5,5,25.1,5,50c0,24.9,20.2,45,45,45   s45-20.1,45-45C95,25.1,74.8,5,50,5L50,5z"/></g><path xmlns="http://www.w3.org/2000/svg" d="M86.3,33.4v33.3c0.8-1.7,1.5-3.4,2-5.2V38.7C87.7,36.9,87.1,35.1,86.3,33.4z"/><path xmlns="http://www.w3.org/2000/svg" d="M82.4,26.8L63.6,53.3c-0.7-0.4-1.5-0.6-2.4-0.6c-1.8,0-3.4,1-4.3,2.4L38.8,43.2c0.1-0.5,0.2-0.9,0.2-1.5c0-2.7-2.2-5-5-5  c-2.7,0-5,2.2-5,5c0,1.1,0.4,2.1,1,2.9L14.7,68.1c0.4,0.8,0.9,1.6,1.4,2.5l2.4-3.7v7.2c0.6,0.7,1.2,1.4,1.8,2.2V64.1l3.4-5.2v20.7  c0.6,0.5,1.2,1.1,1.8,1.6V56.2l3.4-5.2v32.7c0.6,0.4,1.2,0.7,1.8,1.1V48.2l1.3-1.9c0.6,0.3,1.3,0.5,2,0.5c0,0,0,0,0.1,0v39.8  c0.6,0.3,1.2,0.5,1.9,0.7V46.4c0.6-0.2,1.1-0.6,1.5-1l1.8,1.2v41.9c0.6,0.2,1.2,0.2,1.9,0.4v-41l3.4,2.2v39.5  c0.6,0.1,1.2,0.1,1.8,0.1V51.2l3.4,2.2v36.5c0.1,0,0.2,0,0.4,0c0.5,0,1-0.1,1.5-0.1V54.6l3.4,2.2v32.8c0.6-0.1,1.2-0.2,1.8-0.3V60.1  c0.7,1.3,2,2.2,3.5,2.4v26c0.5-0.1,1.1-0.3,1.7-0.4V62.5c1.5-0.2,2.7-1.1,3.4-2.3v26.7c0.7-0.3,1.3-0.6,1.9-0.9V52.2l3.3-4.6v36.6  c0.7-0.4,1.3-0.8,1.9-1.2V44.9l3.3-4.6v40.2c0.7-0.6,1.3-1.2,2-1.8V37.5l3.2-4.6v42.2c0.7-0.9,1.4-1.8,2-2.7V30.1l0.8-1.1  C83.4,28.2,82.9,27.5,82.4,26.8z M65.4,55.1C65.4,55.1,65.4,55,65.4,55.1V55V55.1z"/></g><g id="SvgjsG1008" featureKey="nameFeature-0" transform="matrix(1.5337424278259277,0,0,1.5337424278259277,91.99999963432731,-9.423311709693568)" fill="#fff"><path d="M9.92 32.76 l0 7.2 l-3.68 0 l0 -0.12 c-0.36 0.08 -0.72 0.12 -1.12 0.12 c-2.8 0 -5.04 -2.24 -5.04 -5.04 l0 -4.28 c0 -1.12 0.44 -2.16 1.24 -2.96 c0.76 -0.76 1.8 -1.2 2.92 -1.2 l1.92 0 l0 -4.32 c0 -0.6 -0.52 -1.12 -1.12 -1.12 l-0.2 0 c-0.64 0 -1.12 0.52 -1.12 1.12 l0 3.04 l-3.72 0 l0 -3.04 c0 -2.68 2.16 -4.84 4.84 -4.84 l0.2 0 c2.68 0 4.84 2.16 4.84 4.84 z M5.12 36.24 c0.6 0 1.12 -0.48 1.12 -1.08 l-0.04 -4.92 l-1.96 -0.04 c-0.16 0 -0.24 0.08 -0.32 0.12 c-0.04 0.08 -0.12 0.16 -0.12 0.32 l0 4.28 c0 0.72 0.6 1.32 1.32 1.32 z M23.908 42.88 c0 2.64 -2.12 4.76 -4.72 4.76 l-1.2 0 c-2.64 0 -4.76 -2.12 -4.76 -4.76 l3.8 0 c0 0.52 0.4 0.96 0.96 0.96 l1.2 0 c0.52 0 0.92 -0.44 0.92 -0.96 l0 -3.04 c-0.36 0.08 -0.72 0.16 -1.12 0.16 l-0.84 0 c-2.72 0 -4.92 -2.24 -4.92 -4.96 l0.08 -12.84 c0 -2.72 2.2 -4.92 4.92 -4.92 l0.08 0 l0.72 0.04 c2.68 0 4.88 2.2 4.88 4.92 l0 20.64 z M18.988 36.2 c0.64 0 1.12 -0.52 1.12 -1.16 l0 -12.8 c0 -0.64 -0.52 -1.12 -1.12 -1.12 l-0.08 0 l-0.72 -0.04 c-0.6 0 -1.08 0.52 -1.08 1.12 l-0.08 12.88 c0 0.6 0.52 1.12 1.12 1.12 l0.84 0 z M31.416 39.88 c0.04 -6.28 0.04 -16.32 0 -22.52 l-3.8 0.04 c0.04 6.16 0.04 16.16 0 22.44 z M27.616 12.600000000000001 l3.8 0 l0 3.72 l-3.8 0 l0 -3.72 z M41.564 36.16 l0 3.8 l-1.16 0 c-2.88 0 -5.24 -2.36 -5.24 -5.24 l0 -23.28 l3.8 0 l0 23.28 c0 0.76 0.64 1.44 1.44 1.44 l1.16 0 z M50.03200000000001 39.92 c-2.88 0 -5.2 -2.36 -5.2 -5.24 l0 -12.48 c0 -2.64 2.16 -4.8 4.8 -4.8 l0.84 0 c2.64 0 4.8 2.16 4.8 4.8 l0 5.24 l-6.72 0.12 l0 7.12 c0 0.84 0.64 1.52 1.48 1.52 s1.52 -0.68 1.52 -1.52 l0 -2.48 l3.72 0 l0 2.48 c0 2.88 -2.36 5.24 -5.24 5.24 z M50.47200000000001 21.08 l-0.84 0 c-0.6 0 -1.08 0.52 -1.08 1.12 l0 1.68 l3 -0.08 l0 -1.6 c0 -0.6 -0.48 -1.12 -1.08 -1.12 z M65.38000000000001 36.16 l0 3.8 l-1.16 0 c-2.88 0 -5.24 -2.36 -5.24 -5.24 l0 -23.28 l3.8 0 l0 23.28 c0 0.76 0.64 1.44 1.44 1.44 l1.16 0 z M77.168 17.36 l3.96 0 l-5.64 23.4 s-0.88 5.6 -6.2 5.72 l-0.16 0 l0 0 l0 0 l0 0 l0 -3.88 c0.4 0 0.84 -0.12 1.24 -0.32 c0 0 1.92 -0.56 1.52 -4 l-5.04 -20.92 l4 0 l3.16 13.08 z M94.07600000000001 21.2 l-2.72 0 l0 12.76 c0 1.2 1 2.16 2.2 2.16 l0 3.84 c-3.32 0 -6 -2.68 -6 -6 l0 -12.76 l-2.72 0 l0 -3.84 l2.72 0 l0 -6 l3.8 0 l0 6 l2.72 0 l0 3.84 z M101.58400000000002 39.88 c0.04 -6.28 0.04 -16.32 0 -22.52 l-3.8 0.04 c0.04 6.16 0.04 16.16 0 22.44 z M97.78400000000002 12.600000000000001 l3.8 0 l0 3.72 l-3.8 0 l0 -3.72 z M111.01200000000003 40 l-0.8 0 c-2.68 0 -4.88 -2.16 -4.88 -4.84 l0.08 -13.12 c0 -2.68 2.2 -4.84 4.88 -4.84 l0.8 0 c2.68 0 4.88 2.16 4.88 4.84 l0 3.2 l-3.76 0 l0 -3.2 c0 -0.6 -0.48 -1.08 -1.12 -1.08 l-0.8 0 c-0.64 0 -1.12 0.48 -1.12 1.08 l-0.08 13.12 c0 0.6 0.48 1.08 1.12 1.08 l0.8 0 c0.64 0 1.12 -0.48 1.12 -1.08 l0 -3.76 l3.76 0 l0 3.76 c0 2.68 -2.16 4.84 -4.88 4.84 z M125.04000000000002 39.96 c-2.96 0 -5.36 -2.4 -5.36 -5.36 l0 -3.12 l3.8 0 l0 3.12 c0 0.88 0.72 1.56 1.56 1.56 c0.88 0 1.56 -0.68 1.56 -1.56 l0 -1.72 l-6.92 -7.16 l0 -3.16 c0 -2.96 2.4 -5.4 5.36 -5.4 s5.36 2.44 5.36 5.4 l0 2.48 l-3.8 0 l0 -2.48 c0 -0.88 -0.68 -1.56 -1.56 -1.56 c-0.84 0 -1.56 0.68 -1.56 1.56 l0 1.6 l6.92 7.2 l0 3.24 c0 2.96 -2.4 5.36 -5.36 5.36 z"/></g>
			</g>
		</svg>
	